<svg xmlns="http://www.w3.org/2000/svg" viewBox="0 0 729.72 669.44"><defs><style>.cls-1{fill:#f5e9dc;stroke:#42210b;stroke-miterlimit:10;stroke-width:8.45px;}</style></defs><g id="Layer_2" data-name="Layer 2"><g id="Layer_1-2" data-name="Layer 1"><path class="cls-1" d="M716.34,348.11a220.39,220.39,0,0,1-12.81,43.22,236.5,236.5,0,0,1-18.27,42.15,232.75,232.75,0,0,1-20.72,36.3,255.25,255.25,0,0,1-26.32,36.56,358.56,358.56,0,0,1-31.15,35.18c-1.15,1.12-2,2.66-3.74,3.1a209.49,209.49,0,0,1-28.93,26.1c-9.44,7.75-18.6,16-29.35,21.82-11.27,8-22.33,16.34-35,21.64-9.6,6.66-20,11.3-30.44,15.83-10.2,4.65-20.4,9.42-31,12.6a318.11,318.11,0,0,1-57.93,15.84c-19.59,3.75-39.1,6.44-58.32,5.9-12,1.17-23.72.61-35.52.63q-116.69.25-233.32.12c-1,0-2.06.12-3.07.12a6.05,6.05,0,0,1-3-.64c-16.68-.07-31-6.77-40.55-17.51S2.52,621.6,4.77,605.48c-.62-3.47.44-7.09,1.12-10.64q16.93-89,33.89-178.11h85.5L98.81,555.93a21,21,0,0,0,0,8.29c1.74,8.17,8.68,13.95,18,13.95H421.77c12.35,0,24.24-10,26.58-22.24l4.78-25.12c2.33-12.25,14.2-22.21,26.51-22.21h25.28c12.31,0,24.21-9.95,26.54-22.21l4.78-25.14c2.33-12.25,14.23-22.19,26.54-22.18H588c12.34,0,24.24-10,26.57-22.24l31.24-164.25c2.33-12.25-5.78-22.21-18.13-22.21H602.47c-12.32,0-20.43-9.93-18.1-22.21L589.15,183c2.33-12.26-5.78-22.19-18.1-22.19H545.78c-12.32,0-20.4-10-18.07-22.24l4.78-25.14c2.33-12.23-5.78-22.19-18.12-22.19H209.47c-9.37,0-18.5,5.75-23.34,13.92a25.38,25.38,0,0,0-3.17,8.27l-29,152.7h139.8L309.53,183c2.33-12.26,14.22-22.19,26.54-22.19h95.16c7,0,12.64,3.2,15.81,8.24A19.32,19.32,0,0,1,449.35,183l-4.78,25.15c-2.33,12.28,5.78,22.21,18.07,22.21h25.27c12.35,0,20.46,10,18.13,22.21L474.8,416.84c-2.33,12.28-14.23,22.23-26.57,22.23H423c-12.29,0-24.19,9.93-26.52,22.19l-4.78,25.14a28.19,28.19,0,0,1-26.57,22.21H269.93c-12.31,0-20.43-10-18.1-22.21l26.95-141.68H53.5Q79.3,209.08,105.17,73.4c.2-1.05.38-2.1.58-3.15A22.13,22.13,0,0,1,108,63.33a69,69,0,0,1,8.82-20.4A80.14,80.14,0,0,1,132,25.63a71,71,0,0,1,17.41-12.47,77.09,77.09,0,0,1,19.63-6.77c2-1.37,4-1.08,5.94-1.13,2.56-1.39,5-1,7.44-1q135,0,270,.16c10.22,0,20.19,1.51,30.28,2.35,17.08,1.86,33.69,4.89,49.47,10.05,11.2,2.89,21.59,7.34,32.2,11.38a122.91,122.91,0,0,1,25.13,12.25c18.32,9,34.3,20.94,49.16,34.17C672.72,105,697.27,142.3,711.8,186.77c.54,1.67.86,3.45,1.3,5.16A124.72,124.72,0,0,1,720,219.31a148.72,148.72,0,0,1,4.27,33c1.9,15.6,1.43,31.62-.2,47.84-.85,14.65-3.45,29.38-6.28,44.13C717.53,345.62,717.45,347,716.34,348.11Z"/></g></g></svg>