<svg xmlns="http://www.w3.org/2000/svg" viewBox="0 0 794.75 148.75"><defs><style>.cls-1{fill:#614e41;}</style></defs><g id="Layer_2" data-name="Layer 2"><g id="Layer_1-2" data-name="Layer 1"><path class="cls-1" d="M0,148.75V0H106.25V21.25H127.5V42.5h21.25v63.75H127.5V127.5H106.25v21.25ZM42.5,127.5H85V106.25h21.25V42.5H85V21.25H42.5Z"/><path class="cls-1" d="M161.5,148.75V0H289V21.25h21.25V85h-42.5v21.25H289V127.5h21.25v21.25H246.5V127.5H225.25V106.25H204v42.5ZM204,85h42.5V63.75h21.25V21.25H204Z"/><path class="cls-1" d="M344.25,148.75V127.5H323V21.25h21.25V0H450.5V21.25h21.25V127.5H450.5v21.25ZM365.5,127.5h63.75V21.25H365.5Z"/><path class="cls-1" d="M484.5,148.75V0H612V21.25h21.25V85H612v21.25H527v42.5ZM527,85h63.75V21.25H527Z"/><path class="cls-1" d="M646,148.75V0H773.5V21.25h21.25V85h-42.5v21.25H773.5V127.5h21.25v21.25H731V127.5H709.75V106.25H688.5v42.5ZM688.5,85H731V63.75h21.25V21.25H688.5Z"/></g></g></svg>