<svg xmlns="http://www.w3.org/2000/svg" viewBox="0 0 3865.82 516.39"><defs><style>.cls-1{fill:#614e41;}</style></defs><g id="Layer_2" data-name="Layer 2"><g id="Layer_1-2" data-name="Layer 1"><path class="cls-1" d="M322.74,129.1H64.55v64.54H0V387.29H64.55v64.55H451.84V0H322.74Zm0,258.19H129.1V193.64H322.74Z"/><rect class="cls-1" x="690.94" y="129.1" width="193.65" height="64.55"/><polygon class="cls-1" points="626.39 129.1 497.3 129.1 497.3 451.84 626.39 451.84 626.39 258.19 690.94 258.19 690.94 193.65 626.39 193.65 626.39 129.1"/><path class="cls-1" d="M1284.79,129.1H962v64.54H897.5V387.29H962v64.55h322.75V387.29h64.54V193.64h-64.54Zm-64.55,258.19H1026.59V193.64h193.65Z"/><path class="cls-1" d="M1749.53,193.64V129.1H1362.24V516.39h129.1V387.29h258.19V322.74h64.55V193.64ZM1685,322.74H1491.34V193.64H1685Z"/><rect class="cls-1" x="2052.19" y="129.1" width="193.65" height="64.55"/><polygon class="cls-1" points="1987.64 129.1 1858.54 129.1 1858.54 451.84 1987.64 451.84 1987.64 258.19 2052.19 258.19 2052.19 193.65 1987.64 193.65 1987.64 129.1"/><rect class="cls-1" x="2332.89" y="322.74" width="129.1" height="129.1"/><polygon class="cls-1" points="2742.68 64.55 2678.13 64.55 2678.13 129.1 2549.04 129.1 2549.04 193.65 2678.13 193.65 2678.13 451.84 2807.23 451.84 2807.23 193.65 2936.33 193.65 2936.33 129.1 2807.23 129.1 2807.23 64.55 2936.33 64.55 2936.33 0 2742.68 0 2742.68 64.55"/><polygon class="cls-1" points="3271.98 387.29 3078.33 387.29 3078.33 129.1 2949.24 129.1 2949.24 387.29 3013.79 387.29 3013.79 451.84 3401.08 451.84 3401.08 129.1 3271.98 129.1 3271.98 387.29"/><polygon class="cls-1" points="3801.28 193.65 3801.28 129.1 3413.99 129.1 3413.99 451.84 3543.08 451.84 3543.08 193.65 3736.73 193.65 3736.73 451.84 3865.82 451.84 3865.82 193.65 3801.28 193.65"/></g></g></svg>