<svg xmlns="http://www.w3.org/2000/svg" viewBox="0 0 3880.82 531.39"><defs><style>.cls-1{fill:#f5e9dc;stroke:#42210b;stroke-miterlimit:10;stroke-width:15px;}</style></defs><g id="Layer_2" data-name="Layer 2"><g id="Layer_1-2" data-name="Layer 1"><path class="cls-1" d="M72.05,459.34V394.79H7.5V201.14H72.05V136.6H330.24V7.5h129.1V459.34Zm64.55-64.55H330.24V201.14H136.6Z"/><path class="cls-1" d="M633.89,201.14h64.55v64.55H633.89V459.34H504.8V136.6H633.89Zm258.2-64.54v64.54H698.44V136.6Z"/><path class="cls-1" d="M969.54,459.34V394.79H905V201.14h64.54V136.6h322.75v64.54h64.54V394.79h-64.54v64.55Zm64.55-64.55h193.65V201.14H1034.09Z"/><path class="cls-1" d="M1369.74,523.89V136.6H1757v64.54h64.55v129.1H1757v64.55H1498.84v129.1Zm129.1-193.65h193.65V201.14H1498.84Z"/><path class="cls-1" d="M1995.14,201.14h64.55v64.55h-64.55V459.34H1866V136.6h129.1Zm258.19-64.54v64.54H2059.69V136.6Z"/><path class="cls-1" d="M2340.39,459.34V330.24h129.09v129.1Z"/><path class="cls-1" d="M2685.63,459.34V201.14H2556.54V136.6h129.09V72.05h64.55V7.5h193.65V72.05h-129.1V136.6h129.1v64.54h-129.1v258.2Z"/><path class="cls-1" d="M3021.29,459.34V394.79h-64.55V136.6h129.09V394.79h193.65V136.6h129.1V459.34Z"/><path class="cls-1" d="M3421.49,459.34V136.6h387.29v64.54h64.54v258.2H3744.23V201.14H3550.58v258.2Z"/></g></g></svg>