<svg xmlns="http://www.w3.org/2000/svg" viewBox="0 0 1039 233.53"><defs><style>.cls-1{fill:#141414;}</style></defs><g id="Layer_2" data-name="Layer 2"><g id="Layer_1-2" data-name="Layer 1"><path class="cls-1" d="M120.67,141.32a45.15,45.15,0,0,0-8.42-6A77.5,77.5,0,0,0,132.51,125a66.62,66.62,0,0,0,15-14.65,63.13,63.13,0,0,0,9.28-18.32A70.21,70.21,0,0,0,160,70.78a68.88,68.88,0,0,0-5-26.58,52.33,52.33,0,0,0-15.74-20.82q-10.77-8.71-27.6-13.64T71.09,4.83H0V231H46.77V144.83h15.9q6.24,0,9.43,1.87A18.26,18.26,0,0,1,78,152.62L121,222q5.3,9,17.14,9h42.25l-52.69-81.38A41.52,41.52,0,0,0,120.67,141.32ZM104,101.1a36.77,36.77,0,0,1-13.56,8,59.85,59.85,0,0,1-19.64,2.88h-24V40.38H71.09q21.82,0,32.5,8.88t10.68,24.95a43.52,43.52,0,0,1-2.49,15A30.78,30.78,0,0,1,104,101.1Z"/><path class="cls-1" d="M303.61,84.89a54.8,54.8,0,0,0-19.18-13,66.48,66.48,0,0,0-25.64-4.68,106.6,106.6,0,0,0-37.11,6.32A95.94,95.94,0,0,0,190.35,92.6L198,106.32a20.86,20.86,0,0,0,5.06,5.38,12.31,12.31,0,0,0,7.56,2.26,18.81,18.81,0,0,0,9-2.1l8.34-4.52a71.17,71.17,0,0,1,10.36-4.52,44.54,44.54,0,0,1,14.81-2.11q12,0,18.4,7.09T278,130v8.26q-27.58.63-45.91,5.38t-29.31,12q-11,7.26-15.51,16.14a38.93,38.93,0,0,0-4.52,17.77,49.23,49.23,0,0,0,3.43,19,36.69,36.69,0,0,0,9.74,13.8,41.94,41.94,0,0,0,15.05,8.34,62.94,62.94,0,0,0,19.33,2.8,78.25,78.25,0,0,0,15.51-1.4,61.87,61.87,0,0,0,13-4.13,69.47,69.47,0,0,0,11.77-6.78q5.69-4,11.77-9.36l3.43,10.29q2,5.46,5.22,7.17t9.28,1.72H319.9V130a73.09,73.09,0,0,0-4.21-25.26A57.21,57.21,0,0,0,303.61,84.89ZM278,188.79a56.27,56.27,0,0,1-15.67,11.93,42.29,42.29,0,0,1-18.62,3.82q-9.36,0-14.58-3.9t-5.22-13.25a15.56,15.56,0,0,1,2.57-8.65q2.56-4,8.73-7.1t16.6-5.06A200.52,200.52,0,0,1,278,163.85Z"/><path class="cls-1" d="M560.22,1Q547,0,532.39,0,514.77,0,502,5.46A60.54,60.54,0,0,0,480.86,20a58.35,58.35,0,0,0-12.39,20.73A73.75,73.75,0,0,0,464.42,65v6.23H403.77V64.85a46,46,0,0,1,1.87-14.11,21.2,21.2,0,0,1,5.46-9A20.4,20.4,0,0,1,419.91,37a45.16,45.16,0,0,1,11.77-1.41A22.21,22.21,0,0,0,440.17,34q3.82-1.56,4.14-6.24l.93-21.2A93.17,93.17,0,0,0,435,4.36a71.56,71.56,0,0,0-10.68-.77,75.49,75.49,0,0,0-26,4.21,54.13,54.13,0,0,0-19.49,11.92,51.85,51.85,0,0,0-12.24,18.86,68.82,68.82,0,0,0-4.29,24.87v7.79H338.92V88.39a8.73,8.73,0,0,0,3,7.17A17.41,17.41,0,0,0,349.83,99l12.47,2.18V231h42.88V101.18h59.24V231h42.87V101.18h38.5V71.24H506V65q0-17,8.5-26t24.71-9q5,0,12.7.39t15.83.7V231h42.71V2h-24Q573.39,2,560.22,1Z"/><path class="cls-1" d="M874.33,86.4c-.82.73-2.05,1-4.15,2-.24-4.65-.6-8.48-.61-12.3-.07-21.48-.18-42.95,0-64.42,0-5.51-1.67-7.39-7.29-7-7.11.53-14.3.14-21.46.17-9.63,0-9.7.05-9.68,9.9q.12,75.88.27,151.78c0,16.33-11.17,27.88-28.1,29.37-18.05,1.59-30.21-6.62-32.18-23.75-1.56-13.65-.78-27.57-1.14-41.36C768.78,83,718.35,55,677.2,79.35c-1.59.94-3.37,1.55-5.89,2.7-.24-3-.54-5.14-.55-7.27,0-20.73-.22-41.46.12-62.19.1-5.95-2-7.93-7.66-7.74a191.17,191.17,0,0,1-22.2,0c-7.39-.6-9,2.3-9,9.25.25,68.36.16,136.73.17,205.1,0,2-.57,4.24.2,5.85.94,2,3,4.72,4.64,4.78,10.81.43,21.64.22,33.68.22,0-4,0-6.88,0-9.81,0-27.39-.25-54.79.12-82.18.25-18.35,13.22-29.69,32.6-29.52,17.75.16,28.53,11.12,28.79,29.52.16,11.11,0,22.21.07,33.32A60.13,60.13,0,0,0,745,208.44c15.08,19.48,35.77,25.63,59.53,24.91,40.22-1.21,69.32-34.17,65.8-74.3a63.05,63.05,0,0,1,2-21.87c7.33-26.46,36-38.23,58.81-24.67,18.31,10.88,26.19,37.9,17.18,58.94-11.86,27.68-41.23,34.69-64.32,15.36-.91-.77-1.91-1.45-2.4-1.82-5.63,11.53-11.14,22.85-16.7,34.26,22.56,17.5,61.34,19.2,86.91,3.55,39.86-24.39,50.76-77.87,24.65-118C954,70.22,905.15,59,874.33,86.4Z"/><circle class="cls-1" cx="1012.96" cy="81.52" r="26.04"/></g></g></svg>