<svg xmlns="http://www.w3.org/2000/svg" viewBox="0 0 721.27 660.99"><defs><style>.cls-1{fill:#614e41;}</style></defs><g id="Layer_2" data-name="Layer 2"><g id="Layer_1-2" data-name="Layer 1"><path class="cls-1" d="M712.12,343.89a221.31,221.31,0,0,1-12.82,43.22A235.33,235.33,0,0,1,681,429.25a231.84,231.84,0,0,1-20.72,36.3A256,256,0,0,1,634,502.12a354.73,354.73,0,0,1-31.15,35.17c-1.14,1.13-2,2.67-3.73,3.11a210.71,210.71,0,0,1-28.93,26.1c-9.44,7.75-18.6,16-29.35,21.82-11.27,7.94-22.33,16.33-35,21.64-9.6,6.65-20,11.3-30.45,15.83-10.2,4.64-20.4,9.41-31,12.59a318.59,318.59,0,0,1-57.93,15.85c-19.59,3.74-39.11,6.43-58.33,5.89-12,1.18-23.71.61-35.52.64Q176,661,59.32,660.87c-1,0-2.06.12-3.07.12a6.13,6.13,0,0,1-3-.63c-16.68-.08-31-6.78-40.55-17.52S-1.71,617.38.55,601.26c-.62-3.47.44-7.09,1.11-10.64q16.93-89,33.9-178.12h85.5L94.59,551.71a20.81,20.81,0,0,0,0,8.29c1.74,8.17,8.68,13.94,18,13.94h304.9c12.34,0,24.24-10,26.57-22.23l4.78-25.12c2.33-12.26,14.21-22.21,26.52-22.21h25.27c12.32,0,24.22-9.95,26.55-22.21L532,457c2.33-12.26,14.22-22.19,26.54-22.19H583.8c12.34,0,24.24-10,26.58-22.23l31.23-164.25c2.33-12.26-5.78-22.21-18.12-22.21H598.24c-12.31,0-20.43-9.93-18.09-22.21l4.78-25.15c2.33-12.25-5.79-22.18-18.1-22.18H541.56c-12.32,0-20.41-10-18.07-22.24l4.78-25.14c2.33-12.23-5.79-22.19-18.13-22.19H205.25c-9.37,0-18.5,5.75-23.35,13.92a25.78,25.78,0,0,0-3.17,8.26l-29,152.71h139.8l15.81-83.14c2.33-12.25,14.23-22.18,26.54-22.18H427c7,0,12.64,3.21,15.81,8.25a19.27,19.27,0,0,1,2.32,13.94l-4.78,25.14c-2.34,12.28,5.78,22.21,18.07,22.21h25.27c12.34,0,20.45,10,18.12,22.22L470.58,412.61c-2.34,12.28-14.24,22.24-26.58,22.24H418.73c-12.29,0-24.18,9.93-26.51,22.18l-4.78,25.15a28.25,28.25,0,0,1-26.57,22.21H265.71c-12.32,0-20.43-9.95-18.1-22.21L274.55,340.5H49.28Q75.08,204.85,101,69.18c.2-1.05.37-2.1.57-3.15a22,22,0,0,1,2.28-6.93,69.19,69.19,0,0,1,8.82-20.4A80.31,80.31,0,0,1,127.8,21.41,70.93,70.93,0,0,1,145.22,8.94a77.37,77.37,0,0,1,19.63-6.78c2-1.37,4-1.07,5.94-1.12,2.55-1.4,5-1,7.44-1q135,0,270,.15c10.22,0,20.19,1.52,30.28,2.35,17.08,1.86,33.68,4.9,49.47,10.06C539.14,15.5,549.53,20,560.14,24a124,124,0,0,1,25.13,12.26c18.32,9,34.29,20.94,49.16,34.17C668.5,100.8,693,138.08,707.57,182.55c.55,1.66.87,3.45,1.31,5.16a125.34,125.34,0,0,1,6.89,27.37,148.79,148.79,0,0,1,4.26,33c1.9,15.61,1.44,31.63-.2,47.85-.84,14.65-3.44,29.37-6.27,44.12C713.31,341.39,713.22,342.74,712.12,343.89Z"/></g></g></svg>