<svg xmlns="http://www.w3.org/2000/svg" viewBox="0 0 797.77 151.77"><defs><style>.cls-1{fill:#f5e9dc;stroke:#000;stroke-miterlimit:10;stroke-width:3.02px;}</style></defs><g id="Layer_2" data-name="Layer 2"><g id="Layer_1-2" data-name="Layer 1"><path class="cls-1" d="M1.51,150.26V1.51H107.76V22.76H129V44h21.25v63.75H129V129H107.76v21.25ZM44,129h42.5V107.76h21.25V44H86.51V22.76H44Z"/><path class="cls-1" d="M163,150.26V1.51h127.5V22.76h21.25V86.51h-42.5v21.25h21.25V129h21.25v21.25H248V129H226.76V107.76H205.51v42.5Zm42.5-63.75H248V65.26h21.25V22.76H205.51Z"/><path class="cls-1" d="M345.76,150.26V129H324.51V22.76h21.25V1.51H452V22.76h21.25V129H452v21.25ZM367,129h63.75V22.76H367Z"/><path class="cls-1" d="M486,150.26V1.51h127.5V22.76h21.25V86.51H613.51v21.25h-85v42.5Zm42.5-63.75h63.75V22.76H528.51Z"/><path class="cls-1" d="M647.51,150.26V1.51H775V22.76h21.25V86.51h-42.5v21.25H775V129h21.25v21.25H732.51V129H711.26V107.76H690v42.5ZM690,86.51h42.5V65.26h21.25V22.76H690Z"/></g></g></svg>